<!-- icon666.com - MILLIONS vector ICONS FREE --><svg id="Layer_1" enable-background="new 0 0 512 512" viewBox="0 0 512 512" xmlns="http://www.w3.org/2000/svg"><g><g><path d="m34.8 268.3c-1.7 0-3.2-1.4-3.3-3.1-.3-8.9-.2-17.9.6-26.6.2-1.8 1.8-3.1 3.5-2.9 1.8.2 3.1 1.7 2.9 3.5-.7 7.5-1 16.5-.6 25.8.2 1.8-1.3 3.3-3.1 3.3z"></path></g><g><path d="m37.1 225.8c-1.8-.3-3-2-2.6-3.8.5-2.9 1.1-5.8 1.8-8.7.4-1.7 2.2-2.8 4-2.4 1.7.4 2.8 2.2 2.4 4-.7 2.7-1.3 5.4-1.7 8.2-.5 1.8-2.2 3-3.9 2.7z"></path></g><g><path d="m444.5 173.2c17.6 1.7 34.2 8.4 48.2 19.4 1.4 1.1 3.5.9 4.6-.5s.9-3.5-.5-4.6c-14.9-11.8-32.7-18.9-51.6-20.8-1.8-.2-3.4 1.1-3.6 2.9s1.1 3.4 2.9 3.6z"></path><path d="m515.7 207.1c-1.8-2.5-3.7-4.9-6-7.4-1.2-1.3-3.2-1.5-4.6-.3-1.3 1.2-1.5 3.3-.3 4.6 2.1 2.4 3.9 4.6 5.6 6.9 1.1 1.5 3.1 1.8 4.5.7 1.5-1 1.9-3 .8-4.5z"></path><path d="m435.4 187c-13.4 0-25.9 3.4-36.9 9.3-5.1-16.4-12.6-31.8-22.8-46.1-2-2.8-5.4-4.6-9-4.6h-315.5c-3.6 0-6.9 1.7-9 4.6-69.1 96.4-13.8 249.4 66.8 350.8 5.6 7.1 14.1 11.2 23.2 11.2h153.5c9.1 0 17.6-4.1 23.2-11.2 10.1-12.7 19.8-26.2 28.9-40.3 0 1.5 1 2.8 2.4 3.2 1.7.4 3.5-.7 3.9-2.4 9.2-38.5 47.8-65.3 85.1-91.3 41.5-28.9 84.5-58.7 84.5-104.7.2-43.3-35-78.5-78.3-78.5zm-131.5 309.9c-4.4 5.5-11 8.7-18.1 8.7h-153.6c-7.1 0-13.7-3.2-18.1-8.7-79.1-99.5-133.7-249.2-66.5-342.8.8-1.2 2.2-1.8 3.7-1.8h315.5c1.5 0 2.9.7 3.7 1.8 67.1 93.6 12.5 243.3-66.6 342.8zm121.7-132.1c-21.6 15-43.6 30.3-60.4 48.1 34.7-69.2 52.6-146 35.2-210.2 10.4-5.8 22.3-9.2 35.1-9.2 39.6 0 71.9 32.3 71.9 71.9-.1 42.6-39.8 70.2-81.8 99.4z"></path><path d="m50.8 439.9c-.9-1.6-2.9-2.1-4.4-1.3-1.6.9-2.1 2.9-1.3 4.4 8.1 14.5 17.1 28.9 26.7 42.7 1 1.5 3.1 1.8 4.5.8 1.5-1 1.8-3.1.8-4.5-9.4-13.6-18.3-27.7-26.3-42.1z"></path><path d="m38.3 416.3c-.8-1.6-2.8-2.3-4.4-1.5s-2.3 2.8-1.5 4.4c1.4 2.8 2.8 5.6 4.2 8.4.8 1.6 2.8 2.2 4.4 1.4s2.2-2.8 1.4-4.4c-1.3-2.7-2.7-5.5-4.1-8.3z"></path><path d="m150.4 102.7c2.9 4.8 5.4 9 5.4 17.9 0 1.8 1.5 3.3 3.3 3.3s3.3-1.5 3.3-3.3c0-10.7-3.4-16.3-6.3-21.2-7.3-12.2-7.4-23.4 0-35.7 8.6-14.3 8.6-28.1 0-42.4-2.9-4.8-5.4-9-5.4-17.8 0-1.8-1.5-3.3-3.3-3.3s-3.3 1.5-3.3 3.3c0 10.7 3.4 16.3 6.3 21.2 7.3 12.1 7.4 23.4 0 35.7-8.5 14-8.7 27.9 0 42.3z"></path><path d="m206.2 102.7c2.9 4.8 5.4 9 5.4 17.9 0 1.8 1.5 3.3 3.3 3.3s3.3-1.5 3.3-3.3c0-10.7-3.4-16.3-6.3-21.2-7.3-12.2-7.4-23.4 0-35.7 8.5-14.1 8.7-28 0-42.4-2.9-4.8-5.4-9-5.4-17.8 0-1.8-1.5-3.3-3.3-3.3s-3.3 1.5-3.3 3.3c0 10.7 3.4 16.3 6.3 21.2 7.3 12.1 7.4 23.4 0 35.7-8.5 14-8.6 27.9 0 42.3z"></path><path d="m262 102.7c2.9 4.8 5.4 9 5.4 17.9 0 1.8 1.5 3.3 3.3 3.3s3.3-1.5 3.3-3.3c0-10.7-3.4-16.3-6.3-21.2-7.3-12.2-7.4-23.4 0-35.7 8.5-14.1 8.7-28 0-42.4-2.9-4.8-5.4-9-5.4-17.8 0-1.8-1.5-3.3-3.3-3.3s-3.3 1.5-3.3 3.3c0 10.7 3.4 16.3 6.3 21.2 7.3 12.1 7.4 23.4 0 35.7-8.5 14-8.6 27.9 0 42.3z"></path></g></g></svg>