<!-- icon666.com - MILLIONS vector ICONS FREE --><svg id="Capa_1" enable-background="new 0 0 512 512" viewBox="0 0 512 512" xmlns="http://www.w3.org/2000/svg"><g><g><path d="m341.297 384.657c-3.192 1.657-7.132.404-8.785-2.785-1.909-3.679-6.437-5.112-10.115-3.206-3.678 1.908-5.113 6.436-3.206 10.114 3.826 7.376 11.354 11.61 19.141 11.61 3.333 0 6.714-.776 9.871-2.413 3.679-1.907 5.114-6.436 3.207-10.114-1.907-3.679-6.439-5.113-10.113-3.206z"></path><path d="m405.248 309.1c3.103 2.729 7.844 2.442 10.588-.677 2.737-3.111 2.434-7.851-.677-10.588-2.698-2.373-2.962-6.499-.589-9.196 2.737-3.111 2.433-7.852-.677-10.588-3.111-2.738-7.851-2.434-10.588.677-7.837 8.908-6.966 22.534 1.943 30.372z"></path><path d="m208.086 163.529c-11.866 0-21.521 9.654-21.521 21.521 0 4.143 3.358 7.502 7.502 7.502s7.502-3.359 7.502-7.502c0-3.593 2.923-6.516 6.516-6.516 4.144 0 7.502-3.359 7.502-7.502s-3.357-7.503-7.501-7.503z"></path><path d="m200.576 287.368c4.062-.815 6.695-4.769 5.88-8.831s-4.762-6.694-8.832-5.88c-3.518.707-6.963-1.583-7.67-5.107-.815-4.062-4.76-6.694-8.832-5.88-4.062.815-6.695 4.769-5.88 8.831 2.335 11.643 13.704 19.199 25.334 16.867z"></path><path d="m93.208 185.387c3.693 1.878 8.211.405 10.088-3.287 1.628-3.204 5.558-4.485 8.763-2.856 3.693 1.877 8.211.405 10.087-3.288 1.878-3.694.405-8.21-3.288-10.088-10.578-5.379-23.558-1.146-28.937 9.43-1.877 3.695-.406 8.211 3.287 10.089z"></path><path d="m301.637 210.732c3.491-2.232 4.511-6.871 2.279-10.362-1.939-3.032-1.056-7.06 1.979-8.999 3.491-2.232 4.511-6.871 2.28-10.362-2.233-3.491-6.873-4.511-10.363-2.28-4.843 3.097-8.19 7.894-9.425 13.508s-.21 11.373 2.888 16.217c2.238 3.501 6.882 4.504 10.362 2.278z"></path><path d="m201.077 356.525c50.791 0 87.728-14.578 116.246-45.877 33.729-37.017 50.83-73.921 50.83-109.689 0-46.785-27.667-89.742-62.05-120.833-28.451-25.727-66.217-39.325-109.214-39.325-21.399 0-41.102 4.927-60.234 15.063-25.53 13.526-45.676 35.055-47.42 36.601-15.539 17.32-55.233 52.651-55.233 108.512 0 38.432 13.639 75.743 38.406 105.061 27.505 32.557 73.2 50.487 128.669 50.487zm-39.501-18.54c1.893-5.876 5.98-13.19 14.601-13.19 9.366 0 20.103 7.866 24.647 16.724-13.825-.015-26.955-1.217-39.248-3.534zm148.577-232.771c8.699 9.401 17.916 21.036 25.585 34.493-12.489 3.093-29.615-4.395-29.615-17.719 0-6.384 1.498-12.371 4.03-16.774zm-213.91 1.523c2.685 3.041 4.315 6.499 4.315 9.533 0 7.948-4.377 12.326-12.326 12.326-3.333 0-6.635-.825-9.39-2.244 4.955-6.199 10.715-12.726 17.401-19.615zm-47.237 94.24c0-16.516 3.06-36.342 20.837-62.469 5.285 3.259 11.701 5.093 18.389 5.093 16.348 0 27.331-10.983 27.331-27.33 0-6.979-3.177-14.166-8.608-20.061 30.24-28.222 57.563-40.403 89.933-40.403 38.78 0 73.897 11.618 102.467 38.517-10.246 13.846-13.312 38.839 4.405 52.482 10.387 7.999 26.096 11.003 38.844 6.464 6.358 14.39 10.544 30.419 10.544 47.692 0 31.912-15.785 65.416-46.916 99.583-22.506 24.702-51.219 37.735-89.513 40.437-4.937-16.653-22.921-31.19-40.541-31.19-13.964 0-24.875 9.486-29.303 24.777-26.255-7.323-47.858-20.284-63.004-38.213-22.483-26.615-34.865-60.487-34.865-95.379z"></path><path d="m419.68 151.829c-3.523-2.186-8.147-1.105-10.331 2.416-2.186 3.52-1.105 8.146 2.415 10.331 89.444 55.542 107.348 132.061 59.2 229.605-20.52 41.573-55.414 68.233-109.811 83.9-59.882 17.247-114.263 12.45-153.122-13.507-24.636-16.455-45.007-38.889-58.912-64.877-1.956-3.653-6.501-5.03-10.155-3.075s-5.031 6.501-3.076 10.155c15.065 28.154 37.13 52.455 63.808 70.274 48.155 32.167 110.314 31.374 165.608 15.449 53.456-15.396 94.883-42.586 119.115-91.677 52.344-106.046 29.867-190.245-64.739-248.994z"></path><path d="m218.822 448.808c39.799 26.584 91.246 26.26 137.617 12.905 48.807-14.057 80.268-38.289 99.008-76.257 45.041-91.248 21.954-160.688-55.273-207.832-3.16-19.253-10.11-38.553-20.811-57.631-12.632-22.517-30.597-44.627-51.954-63.939-34.216-30.938-79.657-47.292-131.413-47.292-52.815 0-92.407 25.15-129.466 62.208-32.898 32.899-66.53 74.131-66.53 130.5 0 46.245 16.411 91.14 46.212 126.415 26.646 31.54 67.553 51.648 117.404 58.266 12.588 25.277 31.594 46.884 55.206 62.657zm94.527 6.021c.193-6.171 2.095-14.33 10.38-16.716 8.998-2.591 21.494 1.996 28.313 9.249-13.289 3.813-26.239 6.292-38.693 7.467zm128.642-76.013c-14.79 29.965-38.774 50.436-74.825 63.631-9.354-14.637-30.659-23.631-47.589-18.752-13.419 3.864-21.279 15.999-21.302 31.919-53.173.447-92.441-26.128-116.658-67.688 6.366.418 12.853.637 19.46.637 3.568 0 7.07-.063 10.516-.183.031 3.45.548 7.032 1.575 10.598 3.626 12.59 18.135 21.384 35.252 16.456 12.046-3.47 21.497-17.494 16.53-34.984 4.684-1.341 9.25-2.843 13.7-4.523 24.145-9.114 44.511-23.015 62.261-42.495 30.974-33.996 50.296-67.877 57.741-101.099 8.16 2.804 17.348 2.915 25.908.45 4.348-1.252 8.246-3.139 11.599-5.541 38.587 46.302 32.44 97.67 5.832 151.574zm-191.666 5.186c.057.155.124.305.17.466 1.886 6.552.042 14.742-6.229 16.548-6.618 1.905-14.875.08-16.681-6.19-.721-2.506-1.038-5.06-.97-7.389 8.246-.756 16.134-1.901 23.71-3.435zm175.511-167.907c-1.598.922-3.402 1.687-5.428 2.271-6.653 1.918-13.763 1.432-19.175-1.145.838-7.243 1.058-13.814.839-20.506 9.248 6.35 17.094 12.865 23.764 19.38zm-368.161 102.107c-27.517-32.571-42.67-74.027-42.67-116.732 0-28.558 7.382-65.135 62.136-119.89 34.272-34.273 70.355-57.813 118.855-57.813 47.976 0 89.937 15.014 121.348 43.417 20.166 18.234 37.086 39.034 48.931 60.151 39.917 71.155 19.539 134.537-36.455 195.992-35.457 38.914-78.134 45.052-78.033 45.014-55.93 12.729-147.023 5.602-194.112-50.139z"></path><path d="m205.335 133.447c15.055 0 25.57-10.515 25.57-25.57 0-14.734-15.657-29.746-31.025-29.746-13.829 0-23.865 12.51-23.865 29.746 0 12.568 10.967 25.57 29.32 25.57zm-5.455-40.312c7.187 0 16.02 8.129 16.02 14.742 0 6.912-3.654 10.565-10.565 10.565-6.884 0-14.315-4.039-14.315-10.565 0-5.926 2.359-14.742 8.86-14.742z"></path><path d="m110.085 282.159c12.569 0 25.571-10.916 25.571-29.182 0-7.547-3.806-14.476-10.715-19.51-5.779-4.21-13.181-6.624-20.309-6.624-13.829 0-23.866 12.51-23.866 29.746-.001 12.569 10.966 25.57 29.319 25.57zm-5.454-40.311c7.256 0 16.02 4.964 16.02 11.13 0 6.818-4.039 14.177-10.566 14.177-6.884 0-14.315-4.039-14.315-10.565 0-5.927 2.36-14.742 8.861-14.742z"></path><path d="m274.41 295.54c12.568 0 25.57-10.916 25.57-29.182 0-7.547-3.806-14.475-10.715-19.51-5.778-4.21-13.181-6.624-20.309-6.624-13.829 0-23.865 12.51-23.865 29.746-.001 12.568 10.966 25.57 29.319 25.57zm-5.455-40.312c7.256 0 16.02 4.964 16.02 11.129 0 6.818-4.039 14.177-10.565 14.177-6.884 0-14.315-4.039-14.315-10.565-.001-5.925 2.359-14.741 8.86-14.741z"></path><path d="m389.477 331.169c-13.287 3.827-19.471 18.627-14.701 35.19 3.639 12.632 18.183 21.373 35.251 16.456 12.078-3.478 21.551-17.565 16.495-35.118-4.286-14.888-22.601-20.687-37.045-16.528zm16.398 37.227c-6.615 1.905-14.874.08-16.68-6.19-1.64-5.695-1.811-14.819 4.436-16.619 6.416-1.849 16.662-.028 18.474 6.261 1.886 6.552.042 14.742-6.23 16.548z"></path></g></g></svg>