<!-- icon666.com - MILLIONS vector ICONS FREE --><svg version="1.1" id="Layer_1" xmlns="http://www.w3.org/2000/svg" xmlns:xlink="http://www.w3.org/1999/xlink" x="0px" y="0px" viewBox="0 0 511.999 511.999" style="enable-background:new 0 0 511.999 511.999;" xml:space="preserve"><g><g><circle cx="255.995" cy="149.922" r="16.711"></circle></g></g><g><g><circle cx="322.84" cy="116.499" r="16.711"></circle></g></g><g><g><circle cx="189.15" cy="116.499" r="16.711"></circle></g></g><g><g><path d="M453.299,200.055c7.248-23.321,0.017-50.765-18.164-65.719c0.465-24.098-14.033-49.649-37.231-57.146 c-5.777-26.474-28.762-43.178-50.036-43.486c-13.166-21.202-38.751-29.915-60.35-22.135 c-17.784-14.942-44.207-15.897-63.048-0.011c-21.114-7.611-46.934,0.546-60.328,22.14c-21.61,0.313-44.346,17.361-50.047,43.486 c-23.115,7.478-37.696,32.959-37.231,57.152c-18.054,14.873-25.478,42.231-18.167,65.719c-13.547,0-19.944,7.49-19.944,16.711 v77.986c0,60.059,35.46,111.853,86.49,135.919h261.515c51.03-24.065,86.489-75.859,86.489-135.919v-77.986 C473.247,207.564,466.874,200.055,453.299,200.055z M189.154,378.309c-46.075,0-83.557-37.481-83.557-83.557 c0-9.231,7.486-16.711,16.711-16.711s16.711,7.48,16.711,16.711c0,27.645,22.489,50.134,50.134,50.134 c9.226,0,16.711,7.48,16.711,16.711S198.381,378.309,189.154,378.309z M414.614,200.055H97.386 c-12.473-4.169-12.081-35.561,3.534-42.589c7.104-3.187,10.956-10.95,9.215-18.54c-3.287-14.403,6.768-31.629,18.463-31.29 c9.904,0.26,17.103-7.821,16.82-16.864c-0.59-16.756,13.97-26.875,23.239-23.789c8.641,2.91,18.035-1.89,20.759-10.63 c4.487-14.463,19.797-18.552,28.179-11.685c7.549,6.229,18.819,4.387,24.067-3.732c7.58-11.658,21.75-10.699,28.668,0.006 c5.349,8.23,16.621,9.879,24.067,3.742c8.505-6.908,23.727-2.715,28.19,11.669c2.725,8.742,12.113,13.534,20.759,10.63 c9.335-3.057,23.829,7.033,23.239,23.789c-0.283,9.016,6.905,17.142,16.82,16.864c13.105,0.153,21.455,18.18,18.463,31.29 c-1.741,7.589,2.111,15.351,9.215,18.54C426.668,164.482,427.062,195.893,414.614,200.055z"></path></g></g><g><g><path d="M139.077,464.093c1.171,26.614,23.18,47.906,50.077,47.906h133.69c26.899,0,48.907-21.291,50.077-47.906H139.077z"></path></g></g></svg>