<svg width="119" height="119" viewBox="0 0 119 119" fill="none" xmlns="http://www.w3.org/2000/svg">
<path fill-rule="evenodd" clip-rule="evenodd" d="M46.4453 22.3471C46.4453 19.269 48.9406 16.7737 52.0187 16.7737H55.7343C57.1618 16.7737 58.4639 17.3103 59.4499 18.1929C60.436 17.3103 61.7381 16.7737 63.1656 16.7737H66.8812C69.9593 16.7737 72.4546 19.269 72.4546 22.3471V24.5221C73.0357 24.3167 73.661 24.2049 74.3124 24.2049H78.028C81.1062 24.2049 83.6015 26.7002 83.6015 29.7783V42.783H88.8103C92.0939 42.783 94.6659 45.6074 94.3594 48.8767L89.1668 104.264C89.071 105.286 88.1652 106.036 87.1437 105.94C86.1221 105.845 85.3716 104.939 85.4674 103.917L90.66 48.5299C90.7621 47.4401 89.9048 46.4987 88.8103 46.4987H83.4688C83.1828 47.9509 82.4477 49.3029 81.3894 50.5029C80.0191 52.0566 78.0946 53.3773 75.8124 54.4416C73.5209 55.5104 70.848 56.3307 67.9592 56.8737C65.0674 57.4173 61.9901 57.6772 58.9037 57.6424C55.8175 57.6077 52.7664 57.2788 49.926 56.6696C47.0892 56.0612 44.4893 55.1789 42.2913 54.0523C40.103 52.9308 38.2846 51.5523 37.0455 49.9387C36.2322 48.8796 35.672 47.7197 35.4312 46.4987H30.0896C28.9951 46.4987 28.1378 47.4401 28.2399 48.5299L33.1167 100.549C33.2062 101.503 34.0075 102.233 34.9664 102.233H78.0281C79.0541 102.233 79.8859 103.065 79.8859 104.091C79.8859 105.117 79.0541 105.949 78.0281 105.949H34.9664C32.0898 105.949 29.6858 103.759 29.4173 100.895L24.5405 48.8767C24.234 45.6074 26.806 42.783 30.0896 42.783H35.2984V29.7783C35.2984 26.7002 37.7937 24.2049 40.8719 24.2049H44.5875C45.2389 24.2049 45.8642 24.3167 46.4453 24.5221V22.3471ZM39.014 44.3356C39.0402 44.4933 39.0463 44.6569 39.0298 44.8235C38.9444 45.6885 39.202 46.6463 39.9925 47.6757C40.7996 48.7268 42.1226 49.7907 43.986 50.7457C44.7382 51.1312 45.5607 51.4898 46.4453 51.8169V29.7783C46.4453 28.7523 45.6135 27.9205 44.5875 27.9205H40.8719C39.8458 27.9205 39.014 28.7523 39.014 29.7783V44.3356ZM49.9798 52.8731C50.2188 52.9296 50.4606 52.9842 50.7052 53.0366C52.8774 53.5025 55.2066 53.7921 57.5921 53.8913V22.3471C57.5921 21.3211 56.7604 20.4893 55.7343 20.4893H52.0187C50.9927 20.4893 50.1609 21.3211 50.1609 22.3471V52.0721C50.1609 52.3589 50.0959 52.6306 49.9798 52.8731ZM61.3078 53.8913C63.3544 53.8062 65.3644 53.5807 67.2728 53.222C67.7717 53.1282 68.2607 53.0259 68.739 52.9154V22.3471C68.739 21.3211 67.9072 20.4893 66.8812 20.4893H63.1656C62.1395 20.4893 61.3078 21.3211 61.3078 22.3471V53.8913ZM72.4546 51.8169C73.0818 51.585 73.6786 51.3369 74.2419 51.0742C76.2117 50.1556 77.6661 49.1072 78.6027 48.0452C79.5249 46.9996 79.8833 46.0187 79.8858 45.1519V29.7783C79.8858 28.7523 79.0541 27.9205 78.028 27.9205H74.3124C73.2864 27.9205 72.4546 28.7523 72.4546 29.7783V51.8169Z" fill="#404040"/>
<path d="M67.3162 82.3812C69.0612 78.6665 67.4645 74.2405 63.7498 72.4955C60.0351 70.7505 55.6091 72.3472 53.864 76.0619C52.119 79.7766 53.7157 84.2026 57.4305 85.9476C58.3591 86.3839 58.7583 87.4904 58.3221 88.419C57.8858 89.3477 56.7793 89.7469 55.8506 89.3106C50.2786 86.6931 47.8835 80.0541 50.501 74.4821C53.1186 68.91 59.7575 66.5149 65.3296 69.1325C70.9016 71.75 73.2967 78.389 70.6792 83.961C69.401 86.6819 67.1603 88.6472 64.5583 89.6382C63.5995 90.0033 62.5261 89.5221 62.1609 88.5632C61.7958 87.6044 62.277 86.531 63.2359 86.1658C64.9745 85.5037 66.4635 84.1962 67.3162 82.3812Z" fill="#404040"/>
</svg>
